# xmcd
#
# Track frame offsets: 
#        150
#        11551
#        82177
#        104869
#        153993
#        205592
#        216204
#        246147
#        276196
#        321459
#        330084
#
# Disc length: 4742 seconds
#
# Revision: 4
# Processed by: cddbd v1.5.2PL0 Copyright (c) Steve Scherf et al.
# Submitted via: ExactAudioCopy v0.99pb4
#
DISCID=9a12840b
DTITLE=Jimi Hendrix - LA Forum 26th April 1969
DYEAR=2004
DGENRE=Classic Rock
TTITLE0=Intro
TTITLE1=Tax Free
TTITLE2=Foxy Lady
TTITLE3=Red House
TTITLE4=Spanish Castle Magic
TTITLE5=Star Spangled Banner
TTITLE6=Purple Haze
TTITLE7=I Dont Live Today
TTITLE8=Voodoo Chile (Slight Return)
TTITLE9=Sunshine Of Your Love
TTITLE10=Voodoo Chile (Slight Reprise)
EXTD=
EXTT0=
EXTT1=
EXTT2=
EXTT3=
EXTT4=
EXTT5=
EXTT6=
EXTT7=
EXTT8=
EXTT9=
EXTT10=
PLAYORDER=
